<?xml version="1.0" encoding="utf-8"?>
<!-- Generator: Adobe Illustrator 22.1.0, SVG Export Plug-In . SVG Version: 6.00 Build 0)  -->
<svg version="1.1" id="Layer_1" xmlns="http://www.w3.org/2000/svg" xmlns:xlink="http://www.w3.org/1999/xlink" x="0px" y="0px"
	 viewBox="0 0 22 22" style="enable-background:new 0 0 22 22;" xml:space="preserve">
<style type="text/css">
	.st0{fill:#F7931A;}
	.st1{fill:#FFFFFF;}
</style>
<g>
	<path class="st0" d="M20.7,13.4c-1.3,5.4-6.8,8.6-12.1,7.3C3.2,19.4,0,13.9,1.3,8.6C2.6,3.2,8.1,0,13.4,1.3
		C18.8,2.6,22,8.1,20.7,13.4z"/>
	<path class="st1" d="M15.4,9.6c0.2-1.3-0.8-2-2.2-2.5l0.4-1.8L12.6,5l-0.4,1.8c-0.3-0.1-0.6-0.1-0.9-0.2l0.4-1.8l-1.1-0.3l-0.4,1.8
		C9.9,6.2,9.7,6.2,9.4,6.1v0L7.9,5.7L7.6,6.9c0,0,0.8,0.2,0.8,0.2C8.9,7.2,9,7.5,8.9,7.7L8.4,9.8c0,0,0.1,0,0.1,0c0,0-0.1,0-0.1,0
		l-0.7,2.9c-0.1,0.1-0.2,0.3-0.5,0.3c0,0-0.8-0.2-0.8-0.2L5.9,14l1.4,0.4c0.3,0.1,0.5,0.1,0.8,0.2l-0.5,1.8l1.1,0.3l0.4-1.8
		c0.3,0.1,0.6,0.2,0.9,0.2l-0.4,1.8l1.1,0.3l0.5-1.8c1.9,0.4,3.3,0.2,3.9-1.5c0.5-1.4,0-2.1-1-2.7C14.7,11,15.3,10.6,15.4,9.6z
		 M12.9,13.1c-0.3,1.4-2.6,0.6-3.4,0.4l0.6-2.4C10.9,11.3,13.3,11.7,12.9,13.1z M13.2,9.6c-0.3,1.2-2.2,0.6-2.8,0.5l0.5-2.2
		C11.6,8,13.6,8.3,13.2,9.6z"/>
</g>
</svg>
