<?xml version="1.0" encoding="utf-8"?>
<!-- Generator: Adobe Illustrator 24.0.1, SVG Export Plug-In . SVG Version: 6.00 Build 0)  -->
<svg version="1.1" id="Layer_1" xmlns="http://www.w3.org/2000/svg" xmlns:xlink="http://www.w3.org/1999/xlink" x="0px" y="0px"
	 viewBox="0 0 150 150" style="enable-background:new 0 0 150 150;" xml:space="preserve">
<style type="text/css">
	.st0{fill:#53AE94;}
	.st1{fill:#FFFFFF;}
</style>
<g>
	<path class="st0" d="M74.7,4.3c39.2,0,71,31.8,71,71s-31.8,71-71,71s-71-31.8-71-71S35.5,4.3,74.7,4.3"/>
	<path class="st1" d="M83.5,65.8V55.3h24.2V39.2H41.9v16.1H66v10.6c-19.6,0.9-34.4,4.8-34.4,9.4c0,4.7,14.8,8.5,34.4,9.5v33.8h17.5
		V84.7c19.6-0.9,34.3-4.8,34.3-9.4S103.1,66.8,83.5,65.8 M83.5,81.9L83.5,81.9c-0.5,0-3,0.2-8.7,0.2c-4.5,0-7.7-0.1-8.8-0.2v0
		c-17.3-0.8-30.3-3.8-30.3-7.4s12.9-6.6,30.3-7.4v11.8c1.1,0.1,4.4,0.3,8.9,0.3c5.4,0,8.1-0.2,8.6-0.3V67.1
		c17.3,0.8,30.2,3.8,30.2,7.4C113.7,78.1,100.8,81.1,83.5,81.9"/>
</g>
</svg>
